<mxfile host="Electron" agent="Mozilla/5.0 (Windows NT 10.0; Win64; x64) AppleWebKit/537.36 (KHTML, like Gecko) draw.io/28.2.5 Chrome/138.0.7204.251 Electron/37.6.1 Safari/537.36" version="28.2.5">
  <diagram name="Страница — 1" id="8CX6X3MWQe0TKhlFZ2_I">
    <mxGraphModel dx="2697" dy="3249" grid="1" gridSize="5" guides="1" tooltips="1" connect="1" arrows="1" fold="1" page="1" pageScale="1" pageWidth="827" pageHeight="1169" math="0" shadow="0">
      <root>
        <mxCell id="0" />
        <mxCell id="1" parent="0" />
        <mxCell id="cmS-JBTJvMUEqLT_ApaJ-1" style="edgeStyle=orthogonalEdgeStyle;rounded=0;orthogonalLoop=1;jettySize=auto;html=1;entryX=0.5;entryY=0;entryDx=0;entryDy=0;endArrow=none;endFill=0;" edge="1" parent="1" source="cmS-JBTJvMUEqLT_ApaJ-2" target="cmS-JBTJvMUEqLT_ApaJ-4">
          <mxGeometry relative="1" as="geometry" />
        </mxCell>
        <mxCell id="cmS-JBTJvMUEqLT_ApaJ-2" value="Начало" style="rounded=1;whiteSpace=wrap;html=1;" vertex="1" parent="1">
          <mxGeometry x="350" y="-1140" width="225" height="75" as="geometry" />
        </mxCell>
        <mxCell id="cmS-JBTJvMUEqLT_ApaJ-3" style="edgeStyle=orthogonalEdgeStyle;rounded=0;orthogonalLoop=1;jettySize=auto;html=1;endArrow=none;endFill=0;" edge="1" parent="1" source="cmS-JBTJvMUEqLT_ApaJ-4" target="cmS-JBTJvMUEqLT_ApaJ-6">
          <mxGeometry relative="1" as="geometry" />
        </mxCell>
        <mxCell id="cmS-JBTJvMUEqLT_ApaJ-4" value="Ввод received_text" style="shape=parallelogram;perimeter=parallelogramPerimeter;whiteSpace=wrap;html=1;fixedSize=1;" vertex="1" parent="1">
          <mxGeometry x="350" y="-1045" width="225" height="150" as="geometry" />
        </mxCell>
        <mxCell id="cmS-JBTJvMUEqLT_ApaJ-5" style="edgeStyle=orthogonalEdgeStyle;rounded=0;orthogonalLoop=1;jettySize=auto;html=1;entryX=0.5;entryY=0;entryDx=0;entryDy=0;endArrow=none;endFill=0;" edge="1" parent="1" source="cmS-JBTJvMUEqLT_ApaJ-6" target="cmS-JBTJvMUEqLT_ApaJ-7">
          <mxGeometry relative="1" as="geometry" />
        </mxCell>
        <mxCell id="cmS-JBTJvMUEqLT_ApaJ-6" value="word = пустая строка" style="rounded=0;whiteSpace=wrap;html=1;" vertex="1" parent="1">
          <mxGeometry x="350" y="-875" width="225" height="150" as="geometry" />
        </mxCell>
        <mxCell id="cmS-JBTJvMUEqLT_ApaJ-7" value="text = пустая строка" style="rounded=0;whiteSpace=wrap;html=1;" vertex="1" parent="1">
          <mxGeometry x="350" y="-705" width="225" height="150" as="geometry" />
        </mxCell>
        <mxCell id="cmS-JBTJvMUEqLT_ApaJ-8" style="edgeStyle=orthogonalEdgeStyle;rounded=0;orthogonalLoop=1;jettySize=auto;html=1;entryX=0.5;entryY=0;entryDx=0;entryDy=0;endArrow=none;endFill=0;" edge="1" parent="1" target="cmS-JBTJvMUEqLT_ApaJ-9">
          <mxGeometry relative="1" as="geometry">
            <mxPoint x="462" y="-555" as="sourcePoint" />
          </mxGeometry>
        </mxCell>
        <mxCell id="cmS-JBTJvMUEqLT_ApaJ-9" value="new_text = пустая строка" style="rounded=0;whiteSpace=wrap;html=1;" vertex="1" parent="1">
          <mxGeometry x="350" y="-535" width="225" height="150" as="geometry" />
        </mxCell>
        <mxCell id="cmS-JBTJvMUEqLT_ApaJ-10" style="edgeStyle=orthogonalEdgeStyle;rounded=0;orthogonalLoop=1;jettySize=auto;html=1;endArrow=none;endFill=0;" edge="1" parent="1" target="cmS-JBTJvMUEqLT_ApaJ-12">
          <mxGeometry relative="1" as="geometry">
            <mxPoint x="462" y="-385" as="sourcePoint" />
          </mxGeometry>
        </mxCell>
        <mxCell id="cmS-JBTJvMUEqLT_ApaJ-11" style="edgeStyle=orthogonalEdgeStyle;rounded=0;orthogonalLoop=1;jettySize=auto;html=1;entryX=0.5;entryY=0;entryDx=0;entryDy=0;endArrow=none;endFill=0;" edge="1" parent="1" source="cmS-JBTJvMUEqLT_ApaJ-12" target="cmS-JBTJvMUEqLT_ApaJ-13">
          <mxGeometry relative="1" as="geometry" />
        </mxCell>
        <mxCell id="cmS-JBTJvMUEqLT_ApaJ-12" value="alf_down = продублированный английский алфавит со строчными буквами" style="rounded=0;whiteSpace=wrap;html=1;" vertex="1" parent="1">
          <mxGeometry x="350" y="-365" width="225" height="150" as="geometry" />
        </mxCell>
        <mxCell id="cmS-JBTJvMUEqLT_ApaJ-13" value="alf_up = продублированный английский алфавит с заглавными буквами" style="rounded=0;whiteSpace=wrap;html=1;" vertex="1" parent="1">
          <mxGeometry x="350" y="-195" width="225" height="150" as="geometry" />
        </mxCell>
        <mxCell id="cmS-JBTJvMUEqLT_ApaJ-14" style="edgeStyle=orthogonalEdgeStyle;rounded=0;orthogonalLoop=1;jettySize=auto;html=1;entryX=0.5;entryY=0;entryDx=0;entryDy=0;endArrow=none;endFill=0;" edge="1" parent="1" target="cmS-JBTJvMUEqLT_ApaJ-15">
          <mxGeometry relative="1" as="geometry">
            <mxPoint x="462" y="-45" as="sourcePoint" />
          </mxGeometry>
        </mxCell>
        <mxCell id="cmS-JBTJvMUEqLT_ApaJ-15" value="K = 0" style="rounded=0;whiteSpace=wrap;html=1;" vertex="1" parent="1">
          <mxGeometry x="350" y="-25" width="225" height="150" as="geometry" />
        </mxCell>
        <mxCell id="cmS-JBTJvMUEqLT_ApaJ-16" style="edgeStyle=orthogonalEdgeStyle;rounded=0;orthogonalLoop=1;jettySize=auto;html=1;entryX=0.5;entryY=0;entryDx=0;entryDy=0;endArrow=none;endFill=0;" edge="1" parent="1" target="cmS-JBTJvMUEqLT_ApaJ-17">
          <mxGeometry relative="1" as="geometry">
            <mxPoint x="462" y="125" as="sourcePoint" />
          </mxGeometry>
        </mxCell>
        <mxCell id="cmS-JBTJvMUEqLT_ApaJ-17" value="dot_count = 0" style="rounded=0;whiteSpace=wrap;html=1;" vertex="1" parent="1">
          <mxGeometry x="350" y="145" width="225" height="150" as="geometry" />
        </mxCell>
        <mxCell id="cmS-JBTJvMUEqLT_ApaJ-18" style="edgeStyle=orthogonalEdgeStyle;rounded=0;orthogonalLoop=1;jettySize=auto;html=1;entryX=0.5;entryY=0;entryDx=0;entryDy=0;endArrow=none;endFill=0;" edge="1" parent="1" target="cmS-JBTJvMUEqLT_ApaJ-20">
          <mxGeometry relative="1" as="geometry">
            <mxPoint x="462.67" y="295" as="sourcePoint" />
          </mxGeometry>
        </mxCell>
        <mxCell id="cmS-JBTJvMUEqLT_ApaJ-19" style="edgeStyle=orthogonalEdgeStyle;rounded=0;orthogonalLoop=1;jettySize=auto;html=1;entryX=0.5;entryY=0;entryDx=0;entryDy=0;endArrow=none;endFill=0;" edge="1" parent="1" source="cmS-JBTJvMUEqLT_ApaJ-20" target="cmS-JBTJvMUEqLT_ApaJ-23">
          <mxGeometry relative="1" as="geometry" />
        </mxCell>
        <mxCell id="cmS-JBTJvMUEqLT_ApaJ-20" value="перебор symbol в received_text" style="shape=hexagon;perimeter=hexagonPerimeter2;whiteSpace=wrap;html=1;fixedSize=1;" vertex="1" parent="1">
          <mxGeometry x="348.67" y="315" width="227" height="150" as="geometry" />
        </mxCell>
        <mxCell id="cmS-JBTJvMUEqLT_ApaJ-21" style="edgeStyle=orthogonalEdgeStyle;rounded=0;orthogonalLoop=1;jettySize=auto;html=1;entryX=0.5;entryY=0;entryDx=0;entryDy=0;endArrow=none;endFill=0;" edge="1" parent="1" source="cmS-JBTJvMUEqLT_ApaJ-23">
          <mxGeometry relative="1" as="geometry">
            <mxPoint x="688.67" y="655" as="targetPoint" />
          </mxGeometry>
        </mxCell>
        <mxCell id="cmS-JBTJvMUEqLT_ApaJ-22" style="edgeStyle=orthogonalEdgeStyle;rounded=0;orthogonalLoop=1;jettySize=auto;html=1;endArrow=none;endFill=0;" edge="1" parent="1" source="cmS-JBTJvMUEqLT_ApaJ-23">
          <mxGeometry relative="1" as="geometry">
            <mxPoint x="240" y="820" as="targetPoint" />
          </mxGeometry>
        </mxCell>
        <mxCell id="cmS-JBTJvMUEqLT_ApaJ-23" value="symbol = &#39;.&#39;" style="rhombus;whiteSpace=wrap;html=1;" vertex="1" parent="1">
          <mxGeometry x="349.67" y="485" width="225" height="150" as="geometry" />
        </mxCell>
        <mxCell id="cmS-JBTJvMUEqLT_ApaJ-28" value="dot_count = dot_count + 1" style="rounded=0;whiteSpace=wrap;html=1;" vertex="1" parent="1">
          <mxGeometry x="574.67" y="650" width="225" height="150" as="geometry" />
        </mxCell>
        <mxCell id="cmS-JBTJvMUEqLT_ApaJ-29" value="" style="endArrow=none;html=1;rounded=0;" edge="1" parent="1">
          <mxGeometry width="50" height="50" relative="1" as="geometry">
            <mxPoint x="465" y="820" as="sourcePoint" />
            <mxPoint x="690" y="800" as="targetPoint" />
            <Array as="points">
              <mxPoint x="690" y="820" />
            </Array>
          </mxGeometry>
        </mxCell>
        <mxCell id="cmS-JBTJvMUEqLT_ApaJ-30" value="" style="endArrow=none;html=1;rounded=0;" edge="1" parent="1">
          <mxGeometry width="50" height="50" relative="1" as="geometry">
            <mxPoint x="240" y="820" as="sourcePoint" />
            <mxPoint x="465" y="820" as="targetPoint" />
          </mxGeometry>
        </mxCell>
        <mxCell id="cmS-JBTJvMUEqLT_ApaJ-31" value="" style="endArrow=none;html=1;rounded=0;" edge="1" parent="1">
          <mxGeometry width="50" height="50" relative="1" as="geometry">
            <mxPoint x="320" y="390" as="sourcePoint" />
            <mxPoint x="445" y="820" as="targetPoint" />
            <Array as="points">
              <mxPoint x="180" y="390" />
              <mxPoint x="180" y="860" />
              <mxPoint x="445" y="860" />
            </Array>
          </mxGeometry>
        </mxCell>
        <mxCell id="cmS-JBTJvMUEqLT_ApaJ-32" value="" style="endArrow=classic;html=1;rounded=0;entryX=0;entryY=0.5;entryDx=0;entryDy=0;" edge="1" parent="1" target="cmS-JBTJvMUEqLT_ApaJ-20">
          <mxGeometry width="50" height="50" relative="1" as="geometry">
            <mxPoint x="320" y="390" as="sourcePoint" />
            <mxPoint x="370" y="340" as="targetPoint" />
          </mxGeometry>
        </mxCell>
        <mxCell id="cmS-JBTJvMUEqLT_ApaJ-33" value="" style="endArrow=none;html=1;rounded=0;exitX=1;exitY=0.5;exitDx=0;exitDy=0;" edge="1" parent="1" source="cmS-JBTJvMUEqLT_ApaJ-20">
          <mxGeometry width="50" height="50" relative="1" as="geometry">
            <mxPoint x="595" y="390" as="sourcePoint" />
            <mxPoint x="465" y="940" as="targetPoint" />
            <Array as="points">
              <mxPoint x="840" y="390" />
              <mxPoint x="840" y="895" />
              <mxPoint x="465" y="895" />
            </Array>
          </mxGeometry>
        </mxCell>
        <mxCell id="cmS-JBTJvMUEqLT_ApaJ-34" value="перебор word в списке отдельных слов,&lt;div&gt;найденных в received_text&lt;/div&gt;" style="shape=hexagon;perimeter=hexagonPerimeter2;whiteSpace=wrap;html=1;fixedSize=1;" vertex="1" parent="1">
          <mxGeometry x="355" y="940" width="227" height="150" as="geometry" />
        </mxCell>
        <mxCell id="cmS-JBTJvMUEqLT_ApaJ-35" style="edgeStyle=orthogonalEdgeStyle;rounded=0;orthogonalLoop=1;jettySize=auto;html=1;entryX=0.5;entryY=0;entryDx=0;entryDy=0;endArrow=none;endFill=0;" edge="1" parent="1" target="cmS-JBTJvMUEqLT_ApaJ-38">
          <mxGeometry relative="1" as="geometry">
            <mxPoint x="462" y="1090" as="sourcePoint" />
          </mxGeometry>
        </mxCell>
        <mxCell id="cmS-JBTJvMUEqLT_ApaJ-36" style="edgeStyle=orthogonalEdgeStyle;rounded=0;orthogonalLoop=1;jettySize=auto;html=1;entryX=0.5;entryY=0;entryDx=0;entryDy=0;endArrow=none;endFill=0;" edge="1" parent="1" source="cmS-JBTJvMUEqLT_ApaJ-38">
          <mxGeometry relative="1" as="geometry">
            <mxPoint x="688.67" y="1280" as="targetPoint" />
          </mxGeometry>
        </mxCell>
        <mxCell id="cmS-JBTJvMUEqLT_ApaJ-37" style="edgeStyle=orthogonalEdgeStyle;rounded=0;orthogonalLoop=1;jettySize=auto;html=1;endArrow=none;endFill=0;" edge="1" parent="1" source="cmS-JBTJvMUEqLT_ApaJ-38">
          <mxGeometry relative="1" as="geometry">
            <mxPoint x="240" y="1445" as="targetPoint" />
          </mxGeometry>
        </mxCell>
        <mxCell id="cmS-JBTJvMUEqLT_ApaJ-38" value="количество символов в word &amp;gt; K" style="rhombus;whiteSpace=wrap;html=1;" vertex="1" parent="1">
          <mxGeometry x="349.6700000000001" y="1110" width="225" height="150" as="geometry" />
        </mxCell>
        <mxCell id="cmS-JBTJvMUEqLT_ApaJ-39" value="K = количество символов в word" style="rounded=0;whiteSpace=wrap;html=1;" vertex="1" parent="1">
          <mxGeometry x="574.67" y="1275" width="225" height="150" as="geometry" />
        </mxCell>
        <mxCell id="cmS-JBTJvMUEqLT_ApaJ-40" value="" style="endArrow=none;html=1;rounded=0;" edge="1" parent="1">
          <mxGeometry width="50" height="50" relative="1" as="geometry">
            <mxPoint x="465" y="1445" as="sourcePoint" />
            <mxPoint x="690" y="1425" as="targetPoint" />
            <Array as="points">
              <mxPoint x="690" y="1445" />
            </Array>
          </mxGeometry>
        </mxCell>
        <mxCell id="cmS-JBTJvMUEqLT_ApaJ-41" value="" style="endArrow=none;html=1;rounded=0;" edge="1" parent="1">
          <mxGeometry width="50" height="50" relative="1" as="geometry">
            <mxPoint x="240" y="1445" as="sourcePoint" />
            <mxPoint x="465" y="1445" as="targetPoint" />
          </mxGeometry>
        </mxCell>
        <mxCell id="cmS-JBTJvMUEqLT_ApaJ-42" value="" style="endArrow=none;html=1;rounded=0;" edge="1" parent="1">
          <mxGeometry width="50" height="50" relative="1" as="geometry">
            <mxPoint x="465" y="1480" as="sourcePoint" />
            <mxPoint x="465" y="1445" as="targetPoint" />
          </mxGeometry>
        </mxCell>
        <mxCell id="cmS-JBTJvMUEqLT_ApaJ-43" value="text = text + word + &#39; &#39;" style="rounded=0;whiteSpace=wrap;html=1;" vertex="1" parent="1">
          <mxGeometry x="349.66999999999996" y="1480" width="225" height="150" as="geometry" />
        </mxCell>
        <mxCell id="cmS-JBTJvMUEqLT_ApaJ-44" value="" style="endArrow=none;html=1;rounded=0;" edge="1" parent="1">
          <mxGeometry width="50" height="50" relative="1" as="geometry">
            <mxPoint x="300" y="1015" as="sourcePoint" />
            <mxPoint x="465" y="1630" as="targetPoint" />
            <Array as="points">
              <mxPoint x="160" y="1015" />
              <mxPoint x="160" y="1660" />
              <mxPoint x="465" y="1660" />
            </Array>
          </mxGeometry>
        </mxCell>
        <mxCell id="cmS-JBTJvMUEqLT_ApaJ-45" value="" style="endArrow=classic;html=1;rounded=0;entryX=0;entryY=0.5;entryDx=0;entryDy=0;" edge="1" parent="1" target="cmS-JBTJvMUEqLT_ApaJ-34">
          <mxGeometry width="50" height="50" relative="1" as="geometry">
            <mxPoint x="300" y="1015" as="sourcePoint" />
            <mxPoint x="350" y="965" as="targetPoint" />
          </mxGeometry>
        </mxCell>
        <mxCell id="cmS-JBTJvMUEqLT_ApaJ-46" value="" style="endArrow=none;html=1;rounded=0;" edge="1" parent="1">
          <mxGeometry width="50" height="50" relative="1" as="geometry">
            <mxPoint x="580" y="1015" as="sourcePoint" />
            <mxPoint x="460" y="1740" as="targetPoint" />
            <Array as="points">
              <mxPoint x="840" y="1015" />
              <mxPoint x="840" y="1720" />
              <mxPoint x="460" y="1720" />
              <mxPoint x="460" y="1730" />
            </Array>
          </mxGeometry>
        </mxCell>
        <mxCell id="cmS-JBTJvMUEqLT_ApaJ-48" value="K &amp;gt; 20 или dot_count &amp;gt; 1" style="rhombus;whiteSpace=wrap;html=1;" vertex="1" parent="1">
          <mxGeometry x="348.67" y="1740" width="225" height="150" as="geometry" />
        </mxCell>
        <mxCell id="cmS-JBTJvMUEqLT_ApaJ-50" value="" style="endArrow=none;html=1;rounded=0;entryX=0.544;entryY=-0.004;entryDx=0;entryDy=0;entryPerimeter=0;" edge="1" parent="1" target="cmS-JBTJvMUEqLT_ApaJ-51">
          <mxGeometry width="50" height="50" relative="1" as="geometry">
            <mxPoint x="575" y="1815" as="sourcePoint" />
            <mxPoint x="640" y="1900" as="targetPoint" />
            <Array as="points">
              <mxPoint x="640" y="1815" />
              <mxPoint x="1197" y="1815" />
              <mxPoint x="1462" y="1815" />
            </Array>
          </mxGeometry>
        </mxCell>
        <mxCell id="cmS-JBTJvMUEqLT_ApaJ-51" value="Вывод &#39;Введен текст,&amp;nbsp;&lt;div&gt;не подходящий по условию&#39;&lt;/div&gt;" style="shape=parallelogram;perimeter=parallelogramPerimeter;whiteSpace=wrap;html=1;fixedSize=1;" vertex="1" parent="1">
          <mxGeometry x="1340" y="2060" width="225" height="150" as="geometry" />
        </mxCell>
        <mxCell id="cmS-JBTJvMUEqLT_ApaJ-52" value="" style="endArrow=none;html=1;rounded=0;" edge="1" parent="1">
          <mxGeometry width="50" height="50" relative="1" as="geometry">
            <mxPoint x="245" y="1900" as="sourcePoint" />
            <mxPoint x="355" y="1815" as="targetPoint" />
            <Array as="points">
              <mxPoint x="245" y="1815" />
            </Array>
          </mxGeometry>
        </mxCell>
        <mxCell id="cmS-JBTJvMUEqLT_ApaJ-57" style="edgeStyle=orthogonalEdgeStyle;rounded=0;orthogonalLoop=1;jettySize=auto;html=1;entryX=0.5;entryY=0;entryDx=0;entryDy=0;endArrow=none;endFill=0;" edge="1" parent="1" source="cmS-JBTJvMUEqLT_ApaJ-53" target="cmS-JBTJvMUEqLT_ApaJ-56">
          <mxGeometry relative="1" as="geometry" />
        </mxCell>
        <mxCell id="cmS-JBTJvMUEqLT_ApaJ-53" value="перебор symbol в text" style="shape=hexagon;perimeter=hexagonPerimeter2;whiteSpace=wrap;html=1;fixedSize=1;" vertex="1" parent="1">
          <mxGeometry x="135" y="1900" width="227" height="150" as="geometry" />
        </mxCell>
        <mxCell id="cmS-JBTJvMUEqLT_ApaJ-56" value="symbol есть в alf_down" style="rhombus;whiteSpace=wrap;html=1;" vertex="1" parent="1">
          <mxGeometry x="136" y="2080" width="225" height="150" as="geometry" />
        </mxCell>
        <mxCell id="cmS-JBTJvMUEqLT_ApaJ-58" value="" style="endArrow=none;html=1;rounded=0;exitX=1;exitY=0.5;exitDx=0;exitDy=0;" edge="1" parent="1" source="cmS-JBTJvMUEqLT_ApaJ-56">
          <mxGeometry width="50" height="50" relative="1" as="geometry">
            <mxPoint x="515.67" y="2160" as="sourcePoint" />
            <mxPoint x="575.67" y="2245" as="targetPoint" />
            <Array as="points">
              <mxPoint x="575" y="2155" />
            </Array>
          </mxGeometry>
        </mxCell>
        <mxCell id="cmS-JBTJvMUEqLT_ApaJ-62" style="edgeStyle=orthogonalEdgeStyle;rounded=0;orthogonalLoop=1;jettySize=auto;html=1;entryX=0.5;entryY=0;entryDx=0;entryDy=0;endArrow=none;endFill=0;" edge="1" parent="1" source="cmS-JBTJvMUEqLT_ApaJ-59" target="cmS-JBTJvMUEqLT_ApaJ-61">
          <mxGeometry relative="1" as="geometry" />
        </mxCell>
        <mxCell id="cmS-JBTJvMUEqLT_ApaJ-59" value="i = 0;&lt;div&gt;i &amp;lt; количество символов в alf_down / 2;&lt;/div&gt;&lt;div&gt;i++&lt;/div&gt;" style="shape=hexagon;perimeter=hexagonPerimeter2;whiteSpace=wrap;html=1;fixedSize=1;" vertex="1" parent="1">
          <mxGeometry x="464" y="2240" width="227" height="150" as="geometry" />
        </mxCell>
        <mxCell id="cmS-JBTJvMUEqLT_ApaJ-61" value="элемент в alf_down&amp;nbsp;&lt;div&gt;с индексом i = symbol&lt;/div&gt;" style="rhombus;whiteSpace=wrap;html=1;" vertex="1" parent="1">
          <mxGeometry x="465" y="2410" width="224" height="150" as="geometry" />
        </mxCell>
        <mxCell id="cmS-JBTJvMUEqLT_ApaJ-63" value="" style="endArrow=none;html=1;rounded=0;" edge="1" parent="1">
          <mxGeometry width="50" height="50" relative="1" as="geometry">
            <mxPoint x="689" y="2485" as="sourcePoint" />
            <mxPoint x="734" y="2560" as="targetPoint" />
            <Array as="points">
              <mxPoint x="734" y="2485" />
            </Array>
          </mxGeometry>
        </mxCell>
        <mxCell id="cmS-JBTJvMUEqLT_ApaJ-64" value="new_text = new_text + элемент в alf_down с индексом i+K" style="rounded=0;whiteSpace=wrap;html=1;" vertex="1" parent="1">
          <mxGeometry x="619" y="2560" width="225" height="150" as="geometry" />
        </mxCell>
        <mxCell id="cmS-JBTJvMUEqLT_ApaJ-65" value="" style="endArrow=none;html=1;rounded=0;" edge="1" parent="1">
          <mxGeometry width="50" height="50" relative="1" as="geometry">
            <mxPoint x="414" y="2740" as="sourcePoint" />
            <mxPoint x="464" y="2485" as="targetPoint" />
            <Array as="points">
              <mxPoint x="414" y="2485" />
            </Array>
          </mxGeometry>
        </mxCell>
        <mxCell id="cmS-JBTJvMUEqLT_ApaJ-67" value="symbol есть в alf_up" style="rhombus;whiteSpace=wrap;html=1;" vertex="1" parent="1">
          <mxGeometry x="-350" y="2210" width="225" height="150" as="geometry" />
        </mxCell>
        <mxCell id="cmS-JBTJvMUEqLT_ApaJ-70" value="" style="endArrow=none;html=1;rounded=0;" edge="1" parent="1" source="cmS-JBTJvMUEqLT_ApaJ-67">
          <mxGeometry width="50" height="50" relative="1" as="geometry">
            <mxPoint x="-205" y="2190" as="sourcePoint" />
            <mxPoint x="135" y="2155" as="targetPoint" />
            <Array as="points">
              <mxPoint x="-237" y="2155" />
            </Array>
          </mxGeometry>
        </mxCell>
        <mxCell id="cmS-JBTJvMUEqLT_ApaJ-71" value="" style="endArrow=none;html=1;rounded=0;" edge="1" parent="1">
          <mxGeometry width="50" height="50" relative="1" as="geometry">
            <mxPoint x="-125" y="2285" as="sourcePoint" />
            <mxPoint x="-65" y="2370" as="targetPoint" />
            <Array as="points">
              <mxPoint x="-65" y="2285" />
            </Array>
          </mxGeometry>
        </mxCell>
        <mxCell id="cmS-JBTJvMUEqLT_ApaJ-72" style="edgeStyle=orthogonalEdgeStyle;rounded=0;orthogonalLoop=1;jettySize=auto;html=1;entryX=0.5;entryY=0;entryDx=0;entryDy=0;endArrow=none;endFill=0;" edge="1" parent="1" source="cmS-JBTJvMUEqLT_ApaJ-73" target="cmS-JBTJvMUEqLT_ApaJ-74">
          <mxGeometry relative="1" as="geometry" />
        </mxCell>
        <mxCell id="cmS-JBTJvMUEqLT_ApaJ-73" value="i = 0;&lt;div&gt;i &amp;lt; количество символов в alf_up / 2;&lt;/div&gt;&lt;div&gt;i++&lt;/div&gt;" style="shape=hexagon;perimeter=hexagonPerimeter2;whiteSpace=wrap;html=1;fixedSize=1;" vertex="1" parent="1">
          <mxGeometry x="-175" y="2370" width="227" height="150" as="geometry" />
        </mxCell>
        <mxCell id="cmS-JBTJvMUEqLT_ApaJ-74" value="элемент в alf_up&amp;nbsp;&lt;div&gt;с индексом i = symbol&lt;/div&gt;" style="rhombus;whiteSpace=wrap;html=1;" vertex="1" parent="1">
          <mxGeometry x="-174" y="2540" width="224" height="150" as="geometry" />
        </mxCell>
        <mxCell id="cmS-JBTJvMUEqLT_ApaJ-75" value="" style="endArrow=none;html=1;rounded=0;" edge="1" parent="1">
          <mxGeometry width="50" height="50" relative="1" as="geometry">
            <mxPoint x="50" y="2615" as="sourcePoint" />
            <mxPoint x="95" y="2690" as="targetPoint" />
            <Array as="points">
              <mxPoint x="95" y="2615" />
            </Array>
          </mxGeometry>
        </mxCell>
        <mxCell id="cmS-JBTJvMUEqLT_ApaJ-76" value="new_text = new_text + элемент в alf_up с индексом i+K" style="rounded=0;whiteSpace=wrap;html=1;" vertex="1" parent="1">
          <mxGeometry x="-20" y="2690" width="225" height="150" as="geometry" />
        </mxCell>
        <mxCell id="cmS-JBTJvMUEqLT_ApaJ-77" value="" style="endArrow=none;html=1;rounded=0;" edge="1" parent="1">
          <mxGeometry width="50" height="50" relative="1" as="geometry">
            <mxPoint x="-225" y="2860" as="sourcePoint" />
            <mxPoint x="-175" y="2615" as="targetPoint" />
            <Array as="points">
              <mxPoint x="-225" y="2615" />
            </Array>
          </mxGeometry>
        </mxCell>
        <mxCell id="cmS-JBTJvMUEqLT_ApaJ-78" value="" style="endArrow=none;html=1;rounded=0;" edge="1" parent="1">
          <mxGeometry width="50" height="50" relative="1" as="geometry">
            <mxPoint x="-225" y="2860" as="sourcePoint" />
            <mxPoint x="95" y="2840" as="targetPoint" />
            <Array as="points">
              <mxPoint x="95" y="2860" />
            </Array>
          </mxGeometry>
        </mxCell>
        <mxCell id="cmS-JBTJvMUEqLT_ApaJ-79" value="" style="endArrow=none;html=1;rounded=0;" edge="1" parent="1">
          <mxGeometry width="50" height="50" relative="1" as="geometry">
            <mxPoint x="-200" y="2445" as="sourcePoint" />
            <mxPoint x="-60" y="2860" as="targetPoint" />
            <Array as="points">
              <mxPoint x="-300" y="2445" />
              <mxPoint x="-300" y="2905" />
              <mxPoint x="-60" y="2905" />
            </Array>
          </mxGeometry>
        </mxCell>
        <mxCell id="cmS-JBTJvMUEqLT_ApaJ-80" value="" style="endArrow=classic;html=1;rounded=0;entryX=0;entryY=0.5;entryDx=0;entryDy=0;" edge="1" parent="1" target="cmS-JBTJvMUEqLT_ApaJ-73">
          <mxGeometry width="50" height="50" relative="1" as="geometry">
            <mxPoint x="-200" y="2445" as="sourcePoint" />
            <mxPoint x="-150" y="2390" as="targetPoint" />
          </mxGeometry>
        </mxCell>
        <mxCell id="cmS-JBTJvMUEqLT_ApaJ-81" value="" style="endArrow=none;html=1;rounded=0;" edge="1" parent="1">
          <mxGeometry width="50" height="50" relative="1" as="geometry">
            <mxPoint x="-520" y="2695" as="sourcePoint" />
            <mxPoint x="-350" y="2285" as="targetPoint" />
            <Array as="points">
              <mxPoint x="-520" y="2285" />
            </Array>
          </mxGeometry>
        </mxCell>
        <mxCell id="cmS-JBTJvMUEqLT_ApaJ-82" value="new_text = new_text + symbol" style="rounded=0;whiteSpace=wrap;html=1;" vertex="1" parent="1">
          <mxGeometry x="-625" y="2695" width="225" height="150" as="geometry" />
        </mxCell>
        <mxCell id="cmS-JBTJvMUEqLT_ApaJ-83" value="" style="endArrow=none;html=1;rounded=0;" edge="1" parent="1">
          <mxGeometry width="50" height="50" relative="1" as="geometry">
            <mxPoint x="52" y="2445" as="sourcePoint" />
            <mxPoint x="-520" y="2960" as="targetPoint" />
            <Array as="points">
              <mxPoint x="220" y="2445" />
              <mxPoint x="220" y="2960" />
            </Array>
          </mxGeometry>
        </mxCell>
        <mxCell id="cmS-JBTJvMUEqLT_ApaJ-84" value="" style="endArrow=none;html=1;rounded=0;" edge="1" parent="1">
          <mxGeometry width="50" height="50" relative="1" as="geometry">
            <mxPoint x="-520" y="2960" as="sourcePoint" />
            <mxPoint x="-520" y="2845" as="targetPoint" />
          </mxGeometry>
        </mxCell>
        <mxCell id="cmS-JBTJvMUEqLT_ApaJ-85" value="" style="endArrow=none;html=1;rounded=0;" edge="1" parent="1">
          <mxGeometry width="50" height="50" relative="1" as="geometry">
            <mxPoint x="460" y="3020" as="sourcePoint" />
            <mxPoint x="-60" y="2960" as="targetPoint" />
            <Array as="points">
              <mxPoint x="-60" y="3020" />
            </Array>
          </mxGeometry>
        </mxCell>
        <mxCell id="cmS-JBTJvMUEqLT_ApaJ-86" value="" style="endArrow=none;html=1;rounded=0;" edge="1" parent="1">
          <mxGeometry width="50" height="50" relative="1" as="geometry">
            <mxPoint x="415" y="2740" as="sourcePoint" />
            <mxPoint x="735" y="2710" as="targetPoint" />
            <Array as="points">
              <mxPoint x="735" y="2740" />
            </Array>
          </mxGeometry>
        </mxCell>
        <mxCell id="cmS-JBTJvMUEqLT_ApaJ-87" value="" style="endArrow=none;html=1;rounded=0;" edge="1" parent="1">
          <mxGeometry width="50" height="50" relative="1" as="geometry">
            <mxPoint x="432" y="2315" as="sourcePoint" />
            <mxPoint x="575.67" y="2740" as="targetPoint" />
            <Array as="points">
              <mxPoint x="360.67" y="2315" />
              <mxPoint x="360.67" y="2780" />
              <mxPoint x="575.67" y="2780" />
            </Array>
          </mxGeometry>
        </mxCell>
        <mxCell id="cmS-JBTJvMUEqLT_ApaJ-88" value="" style="endArrow=classic;html=1;rounded=0;entryX=0;entryY=0.5;entryDx=0;entryDy=0;" edge="1" parent="1" target="cmS-JBTJvMUEqLT_ApaJ-59">
          <mxGeometry width="50" height="50" relative="1" as="geometry">
            <mxPoint x="430" y="2315" as="sourcePoint" />
            <mxPoint x="480" y="2265" as="targetPoint" />
          </mxGeometry>
        </mxCell>
        <mxCell id="cmS-JBTJvMUEqLT_ApaJ-89" value="" style="endArrow=none;html=1;rounded=0;" edge="1" parent="1">
          <mxGeometry width="50" height="50" relative="1" as="geometry">
            <mxPoint x="690" y="2315" as="sourcePoint" />
            <mxPoint x="460" y="3020" as="targetPoint" />
            <Array as="points">
              <mxPoint x="905" y="2315" />
              <mxPoint x="905" y="3020" />
            </Array>
          </mxGeometry>
        </mxCell>
        <mxCell id="cmS-JBTJvMUEqLT_ApaJ-90" value="" style="endArrow=none;html=1;rounded=0;" edge="1" parent="1">
          <mxGeometry width="50" height="50" relative="1" as="geometry">
            <mxPoint x="460" y="3075" as="sourcePoint" />
            <mxPoint x="460" y="3020" as="targetPoint" />
          </mxGeometry>
        </mxCell>
        <mxCell id="cmS-JBTJvMUEqLT_ApaJ-91" value="" style="endArrow=none;html=1;rounded=0;exitX=0;exitY=0.5;exitDx=0;exitDy=0;" edge="1" parent="1">
          <mxGeometry width="50" height="50" relative="1" as="geometry">
            <mxPoint x="75" y="1975" as="sourcePoint" />
            <mxPoint x="460" y="3075" as="targetPoint" />
            <Array as="points">
              <mxPoint x="-680" y="1975" />
              <mxPoint x="-680" y="3075" />
            </Array>
          </mxGeometry>
        </mxCell>
        <mxCell id="cmS-JBTJvMUEqLT_ApaJ-92" value="" style="endArrow=classic;html=1;rounded=0;entryX=0;entryY=0.5;entryDx=0;entryDy=0;" edge="1" parent="1" target="cmS-JBTJvMUEqLT_ApaJ-53">
          <mxGeometry width="50" height="50" relative="1" as="geometry">
            <mxPoint x="70" y="1975" as="sourcePoint" />
            <mxPoint x="125" y="1930" as="targetPoint" />
          </mxGeometry>
        </mxCell>
        <mxCell id="cmS-JBTJvMUEqLT_ApaJ-93" value="" style="endArrow=none;html=1;rounded=0;" edge="1" parent="1">
          <mxGeometry width="50" height="50" relative="1" as="geometry">
            <mxPoint x="361" y="1975" as="sourcePoint" />
            <mxPoint x="1115" y="2060" as="targetPoint" />
            <Array as="points">
              <mxPoint x="960" y="1975" />
              <mxPoint x="1115" y="1975" />
            </Array>
          </mxGeometry>
        </mxCell>
        <mxCell id="cmS-JBTJvMUEqLT_ApaJ-94" value="Вывод new_text, K" style="shape=parallelogram;perimeter=parallelogramPerimeter;whiteSpace=wrap;html=1;fixedSize=1;" vertex="1" parent="1">
          <mxGeometry x="1000" y="2060" width="225" height="150" as="geometry" />
        </mxCell>
        <mxCell id="cmS-JBTJvMUEqLT_ApaJ-95" value="" style="endArrow=none;html=1;rounded=0;" edge="1" parent="1">
          <mxGeometry width="50" height="50" relative="1" as="geometry">
            <mxPoint x="1275" y="2540" as="sourcePoint" />
            <mxPoint x="1110" y="2210" as="targetPoint" />
            <Array as="points">
              <mxPoint x="1110" y="2540" />
            </Array>
          </mxGeometry>
        </mxCell>
        <mxCell id="cmS-JBTJvMUEqLT_ApaJ-96" value="" style="endArrow=none;html=1;rounded=0;" edge="1" parent="1">
          <mxGeometry width="50" height="50" relative="1" as="geometry">
            <mxPoint x="1275" y="2540" as="sourcePoint" />
            <mxPoint x="1460" y="2210" as="targetPoint" />
            <Array as="points">
              <mxPoint x="1460" y="2540" />
            </Array>
          </mxGeometry>
        </mxCell>
        <mxCell id="cmS-JBTJvMUEqLT_ApaJ-97" value="" style="endArrow=none;html=1;rounded=0;" edge="1" parent="1">
          <mxGeometry width="50" height="50" relative="1" as="geometry">
            <mxPoint x="460" y="3200" as="sourcePoint" />
            <mxPoint x="1280" y="2540" as="targetPoint" />
            <Array as="points">
              <mxPoint x="1280" y="3200" />
            </Array>
          </mxGeometry>
        </mxCell>
        <mxCell id="cmS-JBTJvMUEqLT_ApaJ-98" value="" style="endArrow=none;html=1;rounded=0;" edge="1" parent="1">
          <mxGeometry width="50" height="50" relative="1" as="geometry">
            <mxPoint x="460" y="3260" as="sourcePoint" />
            <mxPoint x="460" y="3200" as="targetPoint" />
          </mxGeometry>
        </mxCell>
        <mxCell id="cmS-JBTJvMUEqLT_ApaJ-99" value="Конец" style="rounded=1;whiteSpace=wrap;html=1;" vertex="1" parent="1">
          <mxGeometry x="349.67" y="3260" width="225" height="75" as="geometry" />
        </mxCell>
      </root>
    </mxGraphModel>
  </diagram>
</mxfile>
